<svg id="Layer_1" data-name="Layer 1" xmlns="http://www.w3.org/2000/svg" width="100" height="100" viewBox="0 0 100 100"><defs><style>.cls-1{fill:blue;}.cls-2{fill:#8cc63f;}.cls-3{fill:#fff;}</style></defs><title>Boston2_v6</title><circle class="cls-1" cx="50" cy="50" r="50"/><path class="cls-2" d="M45.68,66.75l.26-.16A4.27,4.27,0,0,1,47.63,68c.15.17.25.4.52.47l.2-.52a1.58,1.58,0,0,1-.25-.55l-.33-.16a1.34,1.34,0,0,0,.1-.92.66.66,0,0,1,.27-.64,1.72,1.72,0,0,0,.59-1l.05-.1.27-.07.49.18.11.45-.29.7a3.1,3.1,0,0,1,0,2,.85.85,0,0,1,.35.55c-.09.66-.63,1-.86,1.59l.39.16.16-.3.33-.09c.2-.26.16-.65.49-.82,0-.35-.27-.67,0-1l-.41-.24a2.62,2.62,0,0,1,.28-1.13l-.39-.75.55-.54-.13-.47.13,0c.21.16,0,.37.1.55s-.07.33-.06.54l.21.29.14,0-.16-.59a1.25,1.25,0,0,1,1-.4l.27.22.27.22c0-.31-.27-.51-.28-.8s-.06-.53-.09-.8l.31-.2a2.67,2.67,0,0,0,1.2-.27L52.88,63l.13-.55a1,1,0,0,0,.54-.67,1.57,1.57,0,0,0,.29-.08,1.81,1.81,0,0,0,.25-.2c0-.3.3-.31.48-.5l.28.15.29-.66.34-.09a1.53,1.53,0,0,1,.1-1.3l.37.07-.06.29s.06.06.08,0,.24-.06.36-.09l.27.33.12-.32.44-.32c.32.11.78-.1,1,.36a.81.81,0,0,1,0,.63c-.09.3-.13.62-.2,1l.83-.06a.62.62,0,0,0,0-.12.75.75,0,0,0,0-.11l.47.33v-.31a1.49,1.49,0,0,1,.86-.69l.33.2.82-.7L61,59.16a2.34,2.34,0,0,0,.66-.56l.53-.05.57.23.08.3A1.87,1.87,0,0,0,64.22,59l-.57-.68.52-.14,0-.57.56-.41-.2-.23.32-.38-.13-.06-.57-.12-.3-.34A11,11,0,0,1,64.55,55,7.09,7.09,0,0,1,65.3,54a2.52,2.52,0,0,0,1.21-.6.3.3,0,0,0,.13-.26A3.27,3.27,0,0,1,66.72,52a2.42,2.42,0,0,0,.13-.43l.19-.07.12-.21.12.06.06-.1.22.05,0-.28.16.39.22,0L68.1,51c0,.05,0,0,0,0a1.77,1.77,0,0,1-.11-.79,1.3,1.3,0,0,1,0-.21,1.18,1.18,0,0,0,0-1l.68-.66-.32-.37c-.27.16-.53.35-.84.19a2.62,2.62,0,0,0,0-1.39.7.7,0,0,1,0-.43A6.84,6.84,0,0,1,68,44.93a8.89,8.89,0,0,0,.5-1.18,2.7,2.7,0,0,1,.38-.63l.32-.08c.05-.13.2-.22.15-.4l-.5.21-.18-.69c0-.36.25-.66.35-1,.47,0,.58.36.82.65l.82-.33.13.51c0,.13-.1.26-.13.4a3.19,3.19,0,0,0,0,.45l-.21.06c-.09.26-.25.5,0,.73,0,.05,0,.19,0,.32l-.47.12.37.42.23-.3c.17.07.34.11.49.19a2.82,2.82,0,0,1,.36.28l.09.64c.25-.6.78-.75,1.12-1.12.08-.09.25-.08.42-.12l.11.88a4.12,4.12,0,0,1,.84,1.24c.51.39.88,1,1.49,1.38,0,0,0,.06,0,.15l-.23.08-.2.41.63,1.09-.12.06a.86.86,0,0,0,.08.49c.1.2,0,.43,0,.68a2.9,2.9,0,0,1,1.23.78l.26-.07.23-.46,1,.08.12.48.52.19.36-.09.19.73a1.84,1.84,0,0,0,.85.35c.21.27,0,.6.17.86l.62.22c.12,0,.11.19.17.24s.17.44.38.57c-.33.28-.69.08-1,.23-.18-.17-.36.07-.56,0a1.53,1.53,0,0,0-.56,0,3.71,3.71,0,0,0-.88,0s-.11,0-.16,0a2.15,2.15,0,0,1-1.29-.87l-.32-.09c0-.17-.11-.29,0-.48s-.09-.36-.23-.45-.4-.46-.67-.68l-.37-.16-.11-.4a9.24,9.24,0,0,1-.7-.91.56.56,0,0,0-.29-.26c-.32-.11-.64-.18-1-.29l.12.57.3.14.34.16L75.1,52l-1,.25.1,1.14c.34.38.73.79,1.1,1.27l.49-.19a2.14,2.14,0,0,1,0,.8c0,.25,0,.51,0,.8L75.24,56l-.3.68.23.43a2.92,2.92,0,0,1-.22.67,3.76,3.76,0,0,0-.48,1.45.65.65,0,0,1,0,.21c-.08.19-.21.38-.13.59s0,.44.24.58c0,0,0,.08,0,.13.18.55.36,1.1.52,1.65s.3,1.11.44,1.66l.09.36.31-.52.66-.07L77,63.4l-.13-.48.31-.53c.45-.07.89-.36,1.46-.1,0,0,.09.17.17.29a2.11,2.11,0,0,0,.7.66,8.32,8.32,0,0,1,1,.68.55.55,0,0,1,.26.39,3.78,3.78,0,0,0,.36,1,1.45,1.45,0,0,0,.27.33,9.18,9.18,0,0,1,.35,1.44c0,.46.19.89.25,1.25l-.15,1a1.49,1.49,0,0,1-.66.51l-.15,1,.12.14,0,.06-.26-.12c-.08.18.25.22.15.43a1.42,1.42,0,0,0,0,.47l.33.2L81.31,73c-.2.09-.19.29-.24.5l.24.33a2.77,2.77,0,0,1,1.78-.38l.57.38a.6.6,0,0,1-.08.64,2.86,2.86,0,0,0-.32.74.87.87,0,0,1-.57.65l-.27-.39-.54-.11c0-.22.16-.3.25-.49-.26,0-.51.13-.71,0l-.37.32,0,.2-.52.14a1.46,1.46,0,0,0,0-.42,1.69,1.69,0,0,0-.29-.36A1.3,1.3,0,0,1,80,75a1.52,1.52,0,0,1-.39.06s0,.07,0,.1a15.71,15.71,0,0,0-1,1.82v-.25h-.14c-.19-.23,0-.48,0-.74l-.56.15c-.16.41-.34.86-.51,1.32,0,0,0,0,0,0a.93.93,0,0,1-.4.9c-.13.11-.16.34-.24.53a.78.78,0,0,0,.82-.1.4.4,0,0,1,.29-.09.73.73,0,0,0,.7-.21l.24-.81c.42,0,.63-.52,1.12-.58,0,.09,0,.16,0,.19a1.82,1.82,0,0,0-.54,1,1.5,1.5,0,0,1-.18.5.68.68,0,0,0-.11.63c0,.05,0,.11-.06.22a4.6,4.6,0,0,1,.45-.22,4.77,4.77,0,0,1,.47-.13,2.34,2.34,0,0,0,1.63,0l.23.26-.23.5.58-.15.12-.21a.34.34,0,0,1,.07.11c.07.21.14.42.23.67a1.24,1.24,0,0,0-.13.15.64.64,0,0,0-.17.43c0,.44-.07.89-.15,1.33a2.53,2.53,0,0,1-.31.95c-.35.56-.7,1.12-1.06,1.67a1.41,1.41,0,0,1-.24.25,5.11,5.11,0,0,0-.75.79,1.48,1.48,0,0,1-.36.29,12.39,12.39,0,0,1-1.81,1.81l0,.18c0,.26-.26.33-.43.47L77,88.6a2.9,2.9,0,0,0-1,.5,2.71,2.71,0,0,0-.63.59c-.19.21-.38.41-.55.62a1,1,0,0,0-.33.73l.82-.09c.19,0,.37-.16.57-.06a.2.2,0,0,0,.18,0,1.42,1.42,0,0,1,.71-.28,1.24,1.24,0,0,1,1,0l.09.35a10.24,10.24,0,0,0-.94.78l-.89.74a3.58,3.58,0,0,1-1,.7l-.22-.22s-.06,0-.07,0a4.75,4.75,0,0,1-1,.6.84.84,0,0,1-.61.09c-.08,0-.26-.1-.33.07a6.59,6.59,0,0,0-1,.47h-.09l-.06-.12-.58.29-.27.57-.19,0-.14.39a.4.4,0,0,0,.11,0l1-.25,0,.18-1.72.45.25-.27-.14-.1.05-.11-.31-.09.07-.14-.5,0-.67-.39c-.31.1-.63.09-.8.4-.38.09-.64.44-1,.47-.06,0-.11.08-.18.13l-.43,0,.06-.27c-.24-.23-.57-.2-.84-.29l-.07-.12-.75.2-.1-.16-.25,0-.09-.25-.08.09a1.55,1.55,0,0,0-1.44-.16l-.15.43h-.38l-.06.09c-.2,0-.42,0-.53.08a1.74,1.74,0,0,1-.63.24c-.34.1-.69.18-1,.27,0,.11,0,.24,0,.3a1.09,1.09,0,0,1-.33.27.64.64,0,0,1-.27.07c-.27,0-.45.23-.7.28a1.92,1.92,0,0,0-.62.32c-.17.11-.37.17-.55.27a4.11,4.11,0,0,1-.57.25l-.64.16-.14.23-.09,0c-.18.23-.44.13-.67.16s-.51.13-.8.2l-.07.17.21.44-.16.09,0,.31-.15-.2-.1.31a1,1,0,0,0-.78.18l-.67.11c-.2,0-.39.1-.49.13l-.52-.06a1.39,1.39,0,0,1-.41-.12,6.62,6.62,0,0,0-1.11-.45.63.63,0,0,1-.36-.24,1.34,1.34,0,0,0-.7-.45c-.26-.06-.38-.29-.53-.5a1.73,1.73,0,0,1-.34-.71.64.64,0,0,1,.05-.17l-.21-.34a8.71,8.71,0,0,1-.91.11c-.3,0-.6,0-.94-.06l-.78-.43.21-.09s0-.09,0-.09l-1-.48.51-.17a2.51,2.51,0,0,0-.76.12l-.28-.12s-.09,0-.12,0-.24-.25-.37-.36a1.74,1.74,0,0,1-.44-.33c-1-.07-2-.31-3-.46a11.77,11.77,0,0,1-2.2-.62,12.08,12.08,0,0,1-1.44-.59,2.44,2.44,0,0,0-.33-.1l-.15-.55a3.28,3.28,0,0,0-1.68-.39c-.28-.16-.57-.32-.84-.49a3,3,0,0,1-.51-.43,1.47,1.47,0,0,0-.48-.38,1.52,1.52,0,0,1-.74-1c-.06-.15,0-.35-.2-.44l.06-.12a4.73,4.73,0,0,1-1.3-.63l-.12-.3h0l0,.28-.15,0,0,.56-.09,0,.19.51.79.9-.13.26.32.66.06-.25.47-.12c.05.07.14.14.16.23s-.13.24-.29.3l.08.31.31.14c.44.17.88.35,1.32.51a1.06,1.06,0,0,0,.42.09c.32,0,.64,0,1,0s.38,0,.59,0l.08.31-.15.12c.26,0,.33.21.41.39a4.62,4.62,0,0,0,1.27.6c.06,0,.11.09.16.14a1.68,1.68,0,0,0,.72.53c-.27.06-.49.26-.78.15-.06,0-.15,0-.23.05a.89.89,0,0,1-.56,0,1.17,1.17,0,0,0-.37,0l0,.29c-.4-.06-.79-.26-1.17-.07l-.92-.26-.1.14c-.5-.16-1-.31-1.5-.48a2.08,2.08,0,0,1-.33-.17l0,.06-.46-.15a1.18,1.18,0,0,1-.88-.06l-2.35-.83c-.42-.15-.82-.35-1.23-.52s-.9-.46-1.39-.63a4.53,4.53,0,0,1-1.36-.82c.11-.25-.09-.46-.08-.72l.23-.07a2,2,0,0,1-.28-.45c-.06-.2-.22-.3-.32-.46l-.33-.5.06-.14-.17-.29L23,88.51c-.16.11-.14-.18-.28-.12l0-.09-.3-.71.24-.28a2.54,2.54,0,0,0-.39-1A1.28,1.28,0,0,1,22,86c-.06-.15,0-.3,0-.44s-.14-.25-.19-.39,0-.11,0-.17a1.75,1.75,0,0,0-.14-.6c0-.09-.1-.18-.13-.27a3,3,0,0,0-.08-.32c0-.09-.12-.18-.17-.27l.35-.23.15,0,0-.18c.16-.07.35-.06.47-.22l-.41.1a1.15,1.15,0,0,1-.08-.14h0a.05.05,0,0,0,0,0,.48.48,0,0,0,0,.12c-.84.28-.84.28-1.09.16a3.25,3.25,0,0,1-.19-1.47c-.24.16-.13.4-.24.53s.14.34.06.54.14.34,0,.52c.08.27,0,.56.12.84s.15.57.23.85c0,0,0,.09,0,.13l-.14.23.24.49c0,.09.12.17.17.25l-.07.12c.13.08.3.13.25.37a2,2,0,0,0-.17.15.23.23,0,0,0-.06.29s-.06.1-.06.14,0,.22,0,.32l.37.43-.05.18h.21c-.08.32.36.49.2.83.18.15.29.38.5.49,0,0,0,.07,0,.09a1.83,1.83,0,0,0,.35.33c.1.09.05.3.21.38s.06.06.09.08.06,0,.12,0a1.69,1.69,0,0,0,.1.34,1.38,1.38,0,0,0,.19.25l.08-.11.4.6-.15.27.28,0c.11.1.28.18.37.33.25.38.68.5,1,.74.19,0,.31.11.45.19a11.59,11.59,0,0,0,1.58.78c.26.09.49.23.74.34a8.9,8.9,0,0,0,1.72.71,2.87,2.87,0,0,1,.32.15,1.17,1.17,0,0,1-1,.11,12.79,12.79,0,0,1-1.51-.37s-.09,0-.13,0l-.49-.21c-.15-.06-.26-.22-.46-.16s-.24-.19-.42-.09-.16,0-.2-.08a2.23,2.23,0,0,0-1.14-.74c-.05,0-.11,0-.12-.07-.08-.32-.39-.36-.61-.51l-1.47-.94-.18.05-.18-.19-.47-.35c-.1-.08-.2-.24-.3-.23s-.21-.15-.31-.21A15.26,15.26,0,0,1,19,89.38c-.29-.25-.61-.47-.92-.71a1.72,1.72,0,0,1-.62-.89l-.58-.15a3.36,3.36,0,0,0-.71-.77c-.37-.29-.68-.64-1-1l-.73-.72-.09.13a1.72,1.72,0,0,0-.47-.75,6.52,6.52,0,0,1-1.18-1.48c0-.08-.15-.13-.21-.21s-.19-.29-.3-.47h-.12l0-.3-.17.16-1.67-2.12L10,80.06l-.11-.4-.19,0,0-.15a17.43,17.43,0,0,1-1.19-1.63,3.49,3.49,0,0,0-.47-.62,5.34,5.34,0,0,1-.6-.89c-.21-.34-.46-.65-.71-1a.14.14,0,0,0,0,0,3.4,3.4,0,0,0-.73-1.07l.28,0v-.15l-.26,0-.72-1.41-.21-.13.05-.18L5,72l-.13.13a1.42,1.42,0,0,1,0-.19c0-.08,0-.21,0-.25-.21-.2-.14-.52-.36-.7-.06,0,0-.18-.08-.27a1.23,1.23,0,0,0-.22-.53c-.09-.1-.06-.31-.1-.54a4,4,0,0,1-.27-.49c-.07-.16-.14-.32-.22-.48-.16-.34-.25-.71-.38-1.06-.07-.19,0-.43-.24-.57a.15.15,0,0,1,0-.13c.08-.48-.19-.89-.25-1.34-.25-.23-.2-.57-.34-.85l.37-.18-.38,0-.2-.77.23-.1v0l-.32,0s0,0,0,0c-.15-.52-.15-.52-.07-.76l.13.05v-.16l-.27,0a9.46,9.46,0,0,1-.72-2.32.9.9,0,0,1,.07-.81l-.22-.12c0-.19-.18-.38-.07-.6,0,0,0-.06,0-.09-.12-.59-.25-1.19-.36-1.78-.07-.37-.12-.75-.18-1.17l.1-.13a4.12,4.12,0,0,1-.2-.51,2.1,2.1,0,0,1,0-.56c0-.45,0-.9,0-1.35a2.84,2.84,0,0,1,0-.82c.05-.18-.09-.36,0-.57s0-.46,0-.68,0-.26.15-.34,0-.23.07-.36c.08-.41.15-.82.23-1.23a4,4,0,0,0,.13-1,.11.11,0,0,1,0-.11C1,48.14,1,48,1,47.8c.21.28,0,.51-.08.78l.28,0,0-.64c.11-.12.13-.33.31-.41s0,.1,0,.16c.24.21.18.56.37.8l-.05-.37.36.29L3,48.15l.07-.41c.23.25,0,.61.23.83l0-.76.13,0,.13.5.33.11a2.39,2.39,0,0,1,.46,1l.46.23a1.5,1.5,0,0,1,.16.3c0,.13.07.27.1.36.19.25.38.45.52.68a.92.92,0,0,1,.12.51,1.25,1.25,0,0,0,.16.7,7.24,7.24,0,0,1,.39.79,2.55,2.55,0,0,0,.41.58l.54-.26a2.79,2.79,0,0,1,1,.71l.59,1.27.91.65.13.49-.16.46a4.89,4.89,0,0,1,.21,1.79H10a7.16,7.16,0,0,1,.39.66c.12.23.21.49.3.71a2.81,2.81,0,0,1,.66,1.09,3.06,3.06,0,0,0,.22.49c.07.16,0,.35.21.49s.06.23.11.34a1.24,1.24,0,0,0,.21.54c.09.1.06.3.1.54a2.27,2.27,0,0,1,.68,1.62s.1,0,.11.11a.86.86,0,0,0,.28.44,1.2,1.2,0,0,1,.43.91l-.14.1.33.43-.36-.21-.29.23-.07.26-.41,0-.36-.26-.17.3.07.28-.13.59a.64.64,0,0,1,.13.17c.06.19.05.44.17.57s.09.39.29.48c0,0,0,.06,0,.09a4.41,4.41,0,0,0,.39,1.16.53.53,0,0,1,.05.15l-.18.49a7.7,7.7,0,0,0,.43,1.18,11,11,0,0,1,.43,1.26c.41.41.41.41.84.49l.1-.32a2.4,2.4,0,0,1,1.21.79c.06.4.56.65.41,1.15.25.11.21.43.38.58s.2.42.39.58l-.32.13a.6.6,0,0,1,.46.22,5.38,5.38,0,0,1,.86,1.24,5.34,5.34,0,0,0,.55.82,1.27,1.27,0,0,0,.34.27c.16.09.34.13.49.23a2.93,2.93,0,0,1,.41.38l.38.39.11.42c.11,0,.28.06.31.13a2.43,2.43,0,0,0,1.08,1l.82-.21.16-.15.13.18c0-.21.34-.08.4-.29.16.16.36-.13.5.06l.21-.35.38-.1-.19-.35.46,0c-.29-.22-.6-.3-.7-.64a.43.43,0,0,0-.3-.17c-.56,0-.87-.47-1.3-.79,0-.49-.37-.79-.71-1.1l-.26.07-.45-.43-.14-.5-.22-.23c-.39-.44-.4-.44-.28-1a.61.61,0,0,0,0-.3c0-.1-.05-.2-.08-.31h.55l-.09-.5a.93.93,0,0,1,.41.07,4,4,0,0,0,.46.14l.7.72.48-.13c.26.29.52.56.76.85a.61.61,0,0,0,.36.23,2.69,2.69,0,0,1,1,.42,4,4,0,0,1,1.55,1.68,2.65,2.65,0,0,0,1.06,1.14,3.58,3.58,0,0,1,.55.38c.13.11.21.34.48.27s.33.1.49.15l.22,0,.27-.45-.12-.45-.44-.52.22-.14L29,79.56a2.8,2.8,0,0,0-.57-1.23,1.29,1.29,0,0,1-.3-.82l.1.19,1-.11,0-.32c.28,0,.5.25.84.17a2.47,2.47,0,0,0-1-.6,1.86,1.86,0,0,1-.53-.22,1.81,1.81,0,0,0-.84-.32l-.25.42.16.24c.09.14.31.13.36.32l-.1.1a6,6,0,0,0-.7-.4,6.06,6.06,0,0,0-.76-.21l-.09-.33.22-.1-.3-.55c.18,0,.18,0,.56.2a.25.25,0,0,0,0-.36c-.17-.21-.35-.41-.53-.62l0-.35-.48-.23c-.31.16-.7,0-1.13,0l0,.06c-.17,0-.23-.09-.32-.2a3.05,3.05,0,0,1-.78.28,5.14,5.14,0,0,0-.86.14v.18l-.12.06c0,.29-.1.61.28.9a.51.51,0,0,1-.41-.18,1.71,1.71,0,0,0-1.05-.62,2.57,2.57,0,0,1-.27-.12l.24-.31c-.13-.2-.41-.34-.43-.64l-.67-.56a1.89,1.89,0,0,0-.05.23,3,3,0,0,0,0,.3l-.47-.52.07-.27L19.67,73l-.24.46-.09,0,.07.25-.27,0,.06.84L19,74.7l-.15-.57-.15,0,0,.21-.19-.17-.16-.13-.18.45c-.35-.26-.26-.68-.46-1a.92.92,0,0,0,.14-.14,1.88,1.88,0,0,0,.37-1,.49.49,0,0,1,.06-.25.81.81,0,0,0,.06-.77c.25-.2.46-.44.82-.42v-.19l.14-.06.14-.08-.24,0,0-.46.4-.1c-.14-.08-.33,0-.43-.2l.07-.14L19,69.52c0-.15-.15-.28,0-.46s0-.12,0-.18a1.38,1.38,0,0,1-.05-.92s0-.09,0-.09l.2-.35.2-.31-.09-.33-.27-.08.06-.23.23.06.48-.36.09.34.21.22c-.21-.35-.17-.75-.39-1.07l.08.43-.41.2a.67.67,0,0,0-.2-.39l-.4-.29-.47.26L18,66.3a1.63,1.63,0,0,1-.19,1,2.74,2.74,0,0,0-.16,1.06c0,.07.09.15.12.23l.13.37-.17-.08a2.93,2.93,0,0,0,.2,1.31.65.65,0,0,1,0,.59l-.34-.27-.09-.37.31.4c.09-.33-.25-.45-.2-.74l-.55-.1c-.12.22.15.42-.08.61l-.26-.2L16.06,70l0-.19c.17-.17.31,0,.47,0,.26-.18.08-.55.32-.72l-.24-.33.21.09.11-.49c-.18-.32,0-.79-.26-1.17,0-.32,0-.68.08-1a4.16,4.16,0,0,1,.11-.72c0-.08.1-.14.17-.19l.37-.28-.12-.45a.29.29,0,0,1,0-.09c-.13-.7-.09-.54-.61-.86l0-.15L16,63a7.27,7.27,0,0,0-.2-.73c-.09-.26-.06-.54-.27-.77s-.19-.45-.39-.61l-.67.17a3.62,3.62,0,0,1-.54-.49,3.54,3.54,0,0,1-.31-.71c-.14-.11-.38-.07-.51-.28a.3.3,0,0,0-.4-.09l-.09-.13c-.26-.07-.25.19-.41.29-.11-.09-.28-.1-.34-.28l-.39-.07-.09-.36-.63-.56c0-.24-.23-.5-.12-.82A2,2,0,0,0,10,56.29l-.09-.37c.12-.12.15-.3.32-.42a.47.47,0,0,0,.12-.45c0-.14.12-.29-.08-.45s-.15-.57,0-1l.1.19.5-.13,0-.35.18-.16.21,0c.07,0,.18,0,.21.06.12.21.32.22.53.24a1.69,1.69,0,0,1,.34.1l.49-.25.13.19,0-.24.2,0,.31-.29c.15.26.31.5.43.75a2.05,2.05,0,0,1,0,.7c0,.06,0,.12,0,.17,0,.33.11.65.16,1a1.93,1.93,0,0,1,0,.34,5.71,5.71,0,0,0,.29,1.48,3.18,3.18,0,0,1,0,.34,2.69,2.69,0,0,1,.38.12c.15.07.29,0,.43,0s.3,0,.44,0a2.85,2.85,0,0,0,.46-.12c.17-.24.36-.47.51-.73a3.26,3.26,0,0,0,.25-.61.47.47,0,0,0,0-.26.6.6,0,0,1,.26-.67l.24,0c.14.13,0,.42.25.53-.17.18.08.36,0,.56s0,.34,0,.55l.66-.3c.05.13-.06.18-.08.25s0,.17,0,.27l.91,1.22a.71.71,0,0,1,.67.06c0,.31.4.43.39.78a3.09,3.09,0,0,0,1.3.2c.3.29.77.52.72,1.12l.18,0c.24.29.24.29.21.6l.41.13c.2-.16.36-.38.6-.35l.36-.46c.2-.13.45,0,.55-.25l.54.06.06.26c.19.18.47.16.59.4l-.58.16-.1.32-.16,0-.26-.23-.75.2-.14-.21,0,.31-.16.11.13.49-.24.09c0,.2.14.31.26.42s.28.22.41.33c-.08.3.08.61-.15.85.58.32,1.05.79,1.61,1.15.08.13,0,.34.21.43l-.12.22.24.45.37-.1.6.45.7-.67.65-.17.46.28-.16.51.23.32a.91.91,0,0,0,.31-.12c.11-.1.21-.15.36,0v-.19l.26-.12-.16-.21a.57.57,0,0,1,.35-.58c.13.13.33.14.47.26l.43.36c.06.36.44.57.56.92.22-.2.49.06.71-.11L32,66.75l.3-.22-.05,0c-.21.08-.34,0-.47-.17a3.14,3.14,0,0,0-.84-.6s-.09,0-.11,0l-.62-.54.12-.53h.05l-.1-.4c.43-.26.91-.46,1.11-1a2.5,2.5,0,0,1,1.18-.1,7.57,7.57,0,0,1,1.15.16,1,1,0,0,0,.41,0l.13-.3v-.47l-.74-.41c-.24,0-.67-.11-.88.34l-.76-.11-.08.1-.06,0c-.05-.13-.14-.15-.28-.17s-.41-.12-.69-.2-.47.14-.74.19a.59.59,0,0,0-.39.27,2.1,2.1,0,0,0-.43,1l-.88.1-.45-.27c-.29.11-.59.25-.9.35s-.63.17-1,.25l-.12-.47c-.26-.18-.54,0-.8-.1L24.88,63c.14-.13.28-.24.42-.36a.94.94,0,0,0,.24-.25,7,7,0,0,1,1.11-1.25,1.9,1.9,0,0,0,.42-.6,1.23,1.23,0,0,0-.38-.19,1.77,1.77,0,0,1-1.16-.81.78.78,0,0,0,0-.22c-.06-.4.13-.58.47-.73s.83-.44,1.26-.62a7.25,7.25,0,0,1,.79-.29c.24.12.52.25.78.4s.25.2.39.29a4.34,4.34,0,0,0,1.18.54,3.36,3.36,0,0,0,.89.13c.62,0,1.24.05,1.87,0a4.61,4.61,0,0,1,1.27.16c.41.08.83.12,1.33.19a5.16,5.16,0,0,1,.52.22c.11,0,.22.09.27.23a1.31,1.31,0,0,0,.25.32l.71-.09a2.69,2.69,0,0,0,.81.71c.15.24.08.63.15,1l-.38-.1-.13.5-.19.08s0,.06,0,.06h.55c0,.15.09.28,0,.47a.54.54,0,0,0,.24.54.74.74,0,0,1,.3.53,10.29,10.29,0,0,0,.4,1.1s.06,0,.09,0c0,.21-.15.42-.05.59l-.33.55-.45.12L38,66.1c-.26-.18-.33-.5-.48-.75a6.18,6.18,0,0,1-.45-.79l-.11,0-.14-.07,0,.8-.76,1,.36.87c.34-.14.3-.48.38-.75l.13.06.07-.09.12.06.38.86.47.1,0-.19-.26,0,.36-.28v-.12a4.23,4.23,0,0,1,1.13-.21.76.76,0,0,1,.38.55c.31,0,.43-.26.55-.48l-.09-.36.46-.39,0-.47.57.55a.6.6,0,0,1,0,.53l-.3-.16-.28.47.11.4.54.07.4-.48c.05,0,.1.07.15.07A10.05,10.05,0,0,0,43,66.78a2.56,2.56,0,0,1,.84,0l-.48.37.38.28.3-.19a1.33,1.33,0,0,0,1.07,0,1.57,1.57,0,0,1,.36.59ZM33.1,86a2.63,2.63,0,0,0,.91.81,4.6,4.6,0,0,0,1.29.45.69.69,0,0,0,.35,0s0,0,.06-.06l-.08-.05c-.06-.37.18-.6.31-.86l-.39-.36.28-.32-.4-.2.33-.29.42.3.53.07a1.59,1.59,0,0,0,.22,0c-.21-.35-.51-.61-.41-1l-.24,0-.08.12L36,84.46l-.17.25-.07,0,0-.44.23-.07c0-.46-.51-.55-.64-.77s-.05-.41-.09-.57a2.94,2.94,0,0,0-.21-.46l.57.31.23-.4a2.63,2.63,0,0,1,1,.35c.17-.34.47-.62.29-1a3.52,3.52,0,0,1-.55-.2,3.72,3.72,0,0,1-.45-.36,2.23,2.23,0,0,1-1.24-.15l-.5.21L33.87,81l-.84.34.2.76-.18.31a12.92,12.92,0,0,0,.58,2l.32.28-.24.06-.16-.26-.51.53-.32,0-.19.31.1.06a.52.52,0,0,0,.3.64A.85.85,0,0,0,33.1,86Zm20.18,1.16.27-.07,0-.47.27-.07.09-.16a1.57,1.57,0,0,1-.26-.33.47.47,0,0,0-.3-.31l.43.72-.37.09-.1.31H53v.06l.32.11Zm-1.19,3.79.27.11c0-.13-.12-.22-.21-.24a6.13,6.13,0,0,0-.84-.14c-.05,0-.1,0-.19.06l.8.2-.59.37A1.33,1.33,0,0,0,52.09,90.94Z"/><path class="cls-2" d="M25.93,24.89l-.2-.07-.09-.35a3.59,3.59,0,0,1,.12-.39,2,2,0,0,1,.22-.49,6.53,6.53,0,0,0,1.21-2.34l.39-.26.26.41c-.16.37-.33.69-.47,1.09.29-.23.52-.41.74-.6s.36-.52.81-.54l-.4-.16c0-.05,0-.09,0-.11A6.66,6.66,0,0,1,29.6,19.6c.06-.05.06-.16.08-.25a1.11,1.11,0,0,1,0-.17.55.55,0,0,0-.15-.66l-.36-.13-.18.14c0-.05,0-.09,0-.1l.32-.29L30.69,17s0-.06,0-.11c-.29.14-.45.5-.8.54.33-.25.53-.68,1-.71l.06-.28h-.15c-.22-.31.05-.58.08-.87.17.14.32,0,.52,0a.48.48,0,0,0-.42-.23c-.18-.24,0-.48,0-.79.13.21.26.33.47.2l.37.39a.42.42,0,0,0-.23-.47l.3-.15v-.05l-.37.07L31.15,14l-.25.05-.4-.51.23-.5a3.06,3.06,0,0,0,.83-.85c.11-.15.33-.16.38-.35.27-.13.26-.44.43-.63a3.31,3.31,0,0,0,.58-.66c.09-.16.23-.29.31-.45a.54.54,0,0,0-.2-.76A2.09,2.09,0,0,0,32.19,9l-.08-.22-.61-.22-.06-.23.17-.48.59-.15L33.63,8l.13.49c.33.08.65.17,1,.23a.72.72,0,0,0,.33-.11c.11-.06.2-.15.31-.22a.85.85,0,0,1,.74-.19c.18,0,.37,0,.55,0a.21.21,0,0,0,.14,0c.24-.25.59-.21.89-.32s.48-.11.71-.19.44-.18.66-.28l-.28-.32a.28.28,0,0,0,0-.09c.09-.13.24.09.35-.06s.23-.07.34-.12a2.46,2.46,0,0,1,1.08,0,.78.78,0,0,1,.57-.18,2.16,2.16,0,0,0,.92-.1c.43-.24,1-.26,1.31-.69,0,0,.05,0,.07,0l.79-.29a.85.85,0,0,0,.47-.77l-.21-.3a1.31,1.31,0,0,0,.34-.62c0-.24,0-.49,0-.74l-.57-.33s0-.08,0-.07a2.59,2.59,0,0,1-.52-.19,1.92,1.92,0,0,0-1.19-.2.9.9,0,0,1-.4,0,.61.61,0,0,0-.3,0,2.37,2.37,0,0,0-.36.09c-.31.08-.63.15-.94.25a10.4,10.4,0,0,0-1.33.45c-.25.11-.57.24-.46.65,0,0-.05.08-.08.14A19.09,19.09,0,0,1,36,4.76l0-.11c.18-.17.35-.35.52-.52L36.31,4l.26-.26-.07-.06.36-.09-.06-.51.52-.31L37,2.68l-.09.12c-.3.12-.59.24-.89.34a4.84,4.84,0,0,0-.89.25,5.53,5.53,0,0,1-.94.33c-.13,0-.25.15-.39.19a3.42,3.42,0,0,1-1,.08l-.07.11L32.52,4c.16-.18.18-.29.08-.43l.34-.5-1,.25s-.06-.07-.05-.09.16-.27.3-.26a3.8,3.8,0,0,0,1.25-.24c.22,0,.44-.11.7-.18l-.09.19c.35,0,.68-.13,1-.16s.64,0,1,0c.19-.12.4-.38.69-.35a8.87,8.87,0,0,0,1.14-.14,5.26,5.26,0,0,0,1.13-.26,4.65,4.65,0,0,1,.66-.05l.07.2.06,0,0-.25L41,1.88s.08,0,.12,0l1-.15a2.25,2.25,0,0,0,.26,0,.78.78,0,0,0,.3-.07,1.08,1.08,0,0,1,.7-.18c.22,0,.44-.06.66-.08.5,0,1,0,1.48,0s1.07.05,1.61,0c.18,0,.36.13.55.05a2.74,2.74,0,0,0,1.2.14,6,6,0,0,1,1.27.23A7.07,7.07,0,0,1,51,2c.07,0,.13.1.17.22l-.12,0-.18.31a4.54,4.54,0,0,0,1.73,1,1.78,1.78,0,0,1,.36.19,3,3,0,0,0,1,.45c.06,0,.11,0,.16.08l-.06.24c.31.23.82.17,1,.65A1.8,1.8,0,0,1,56.31,6a2.66,2.66,0,0,0,.37.39l.11.42A3.79,3.79,0,0,0,58,7.34l.11-.17-.06-.61A3.8,3.8,0,0,0,57.4,6a1.54,1.54,0,0,1-.52-.46c-.23-.41-.65-.56-1-.81A1.22,1.22,0,0,0,55.29,4l-.07-.28c-.37,0-.61-.2-1-.4l.46-.12a5,5,0,0,0,1.67.9l0,.48,2,.88-.56.18c-.07.21.12.28.2.4a.39.39,0,0,0,.16.1,2.13,2.13,0,0,1,1.11,1.21,2.72,2.72,0,0,0,.32.51c-.12.15,0,.23.09.33a.81.81,0,0,0,.28.33c.25.16.42.46.76.49s.27.33.55.34a2.18,2.18,0,0,1,.63.25l-.06.29a3,3,0,0,1,.57.79c.1.31.39.58.26.93l.32.44.3.42a.86.86,0,0,0,0,.65h.13l.14,0a3.67,3.67,0,0,0-.52,1,1,1,0,0,0,0,.3.53.53,0,0,1-.21.57.54.54,0,0,0-.3.47c0,.08-.07.17-.13.24a2.9,2.9,0,0,0-.47,1.59V18c-.16-.09-.32-.18-.47-.28s-.43-.32-.31-.65c0-.05,0-.12,0-.19l-.24.06a2.1,2.1,0,0,0-.06,1l-.18.12.21,0,1,1.19a2.15,2.15,0,0,0,.63.61,2.18,2.18,0,0,1,.38.3c-.12.16,0,.31,0,.5l-.23.55.44.51-.09.49.28.78-.18.27.46.86-.16.72c.39.47.22,1,.2,1.51.18.21.49.22.62.47a1,1,0,0,1,.54.4c.11.26.23.48.31.72a5.31,5.31,0,0,0,.21.71,12,12,0,0,0,.66,1l.1-.13c0,.12.21.15.13.33h.14A3.05,3.05,0,0,1,67,31.52l.49.22.33-.37a4.85,4.85,0,0,0,.78.34,2,2,0,0,1,.73.29l-.22.4c-.16.06-.33.05-.45.2a.3.3,0,0,1-.34,0,2.18,2.18,0,0,0-.53-.05c.13.14.18.23.24.25a1.54,1.54,0,0,0,.74,0l.35-.09,0-.28.07.29.51.11.28-.07,0-.37a2,2,0,0,1,1.62.32l.32-.09c.17.06.31.1.44.16a2,2,0,0,1,.37.21l.35-.09c.21.06.34.27.54.25a2.36,2.36,0,0,0,.39.43,2,2,0,0,0,.47.3c.19,0,.27.24.48.27a.63.63,0,0,1,.35.27,6.16,6.16,0,0,0,.51.52c-.06,0-.14.08-.15.07-.22-.21-.53-.27-.76-.49a2.4,2.4,0,0,0-.74-.33l-.43-.48c-.36.12-.62-.16-1-.23s-.47-.13-.71-.19c-.06,0-.15,0-.17,0s-.28.15-.42.23a1.24,1.24,0,0,1-.4.07s0,0-.06.08c.12.18.33.22.48.34l0,.1.32.13-.09.4.22.05-.14.21s0,0,0,0,.13.12.19.12c.22,0,.31.15.44.28l-.26.28-.35.1-.1.47c.18.12.37.26.39.46l-.14.76-.32.2-.18.41-.47.12v0l-.52,0-.52,0-.11-.43-.51-.1-.08-.32-.52,0-.22.48-.31-.11.06.23.55.33a.87.87,0,0,0,.27.54.56.56,0,0,1,.12.23c0,.17.09.36.14.53-.3.19-.24.56-.42.83a1.4,1.4,0,0,1-.46-.22c-.26-.29-.71-.34-.89-.75l.35-.14a2.43,2.43,0,0,0-.4-.67.86.86,0,0,0-.35.71,1.19,1.19,0,0,1-.17.59,1.36,1.36,0,0,0-.21,1s0,.11-.06.13c-.41.12-.56-.18-.71-.45l-.63-.14c-.27.35-.58.13-.87,0a2.73,2.73,0,0,1-.4-.23L63.8,40l0-.19-.6-.12L63,39.21l.13-.25-.44-.4a.63.63,0,0,0-.28-.77c-.15-.11-.21-.34-.31-.51a1.08,1.08,0,0,1-.05-.19c-.15-.16-.33-.28-.39-.45s-.27-.24-.48-.37c0-.25-.36-.45-.36-.84H60.7a4.48,4.48,0,0,1-.23-.49c-.06-.17-.22-.28-.24-.48s-.12-.18-.19-.27l-.83.21-.42-.34c-.24,0-.45.07-.66.08a2.53,2.53,0,0,1-.38,0l-.1-.38-.22.15-.08,0-.24.3c-.16-.35-.18-.69-.32-1l-.59.38a1.82,1.82,0,0,0,.14-.32,1.11,1.11,0,0,0,0-.28l-.37,0-.22.2-.35-.13A3.47,3.47,0,0,0,54,31.71c-.32.12-.39-.15-.52-.3,0-.38.41-.21.44-.47l-.59-.29a3.43,3.43,0,0,0-1.07.07c-.34,0-.17-.45-.53-.44l-.39.43.31.1,0,.37-.7.18c-.11-.1-.26-.2-.38-.32a3.37,3.37,0,0,1-.3-.36l-.31.08-.51-.33c-.39,0-.7.25-1.11.15l.12.55a.7.7,0,0,1-.71,0c-.24-.23-.07-.55-.24-.81l-.09.59-.28.08c-.09.25,0,.5,0,.75,0,.06,0,.15.11.23a3.45,3.45,0,0,0,.74.66,2.48,2.48,0,0,0,0,.33,1.41,1.41,0,0,1-.07,1c0,.08-.14.14-.21.21l-.53-.35L46.5,33l.16-.48-.6-.07-.22-.83-.28.76a1,1,0,0,0-.16-.2,1.42,1.42,0,0,0-.22-.13,1.36,1.36,0,0,0-.63-1.11,3,3,0,0,0,.08,2.24,1.47,1.47,0,0,1-1.31,0l-.26-.4.1-.44L42.77,32l-.1-.41a3.83,3.83,0,0,0,.27-.58c0-.11.19-.2.3-.29l.22-.16.38.09c0-.47.19-.93.14-1.41a.91.91,0,0,1,.13-.37,3.54,3.54,0,0,1,.14-.33l.51-.27.2-.35-.1-.38.23-.21L45,27.23l.3-.09a4.83,4.83,0,0,0,.54-1.36c0-.15.18-.27.09-.47s.09-.25.08-.37c0-.33-.08-.65-.13-1l-.68-.08c-.32-.31-.38-.83-.74-1.12l-.61.3a4.26,4.26,0,0,1-.48,0c-.32-.05-.65-.1-1-.18a3.49,3.49,0,0,1-.48-.23c-.19-.07-.37.12-.52,0-.25.07-.46-.08-.69-.14l-1.22.45-.16-.09c-.16-.29-.15-.66-.41-.95a3.23,3.23,0,0,0-.8-.73,4.14,4.14,0,0,0-1-.3.79.79,0,0,0-.31.88,1.22,1.22,0,0,1,0,.26c.39.36.54,1,1.2,1.09,0,.11-.07.21-.14.25a1.42,1.42,0,0,0-.55,1c-.19.2-.1.46-.1.68a.93.93,0,0,0,.41.65,3.87,3.87,0,0,0,1.16.54,5.08,5.08,0,0,1-.07.67.49.49,0,0,0,.13.44,6.41,6.41,0,0,1,.8,1.06c.15.29.18.31.07.59-.18,0-.34.16-.56.06a.31.31,0,0,0-.28.1c-.09.11-.22.09-.33.14l-.18.32A2.53,2.53,0,0,1,37,29.2l-.69.35a5.78,5.78,0,0,0-1.06-1.24l-.33.18-.58-.12s-.07,0-.07.06c0,.17-.13.27-.16.41a.72.72,0,0,0,0,.48.82.82,0,0,1,.11.44c-.06.2,0,.35,0,.53l-.08.14c-.86-.44-1.82-.58-2.71-.95l-.11-.39c-.44,0-.86.13-1.29.12a.88.88,0,0,0-.48.22c-.16.12-.3.3-.51.31a2.61,2.61,0,0,1-.59-.13c-.08,0-.16-.09-.26-.14l-.29.26c-.18,0-.39,0-.56-.15L27,29.23c0-.16.09-.34.07-.56a.92.92,0,0,1,.18-.44,3,3,0,0,0,.39-1.08,1.47,1.47,0,0,1,.24-.79s0-.09,0-.14l.38-.33v-.16a2.14,2.14,0,0,0,1.17-.65c.16-.12.31-.25.48-.36s.44-.28.49-.57l-.24,0,.28-.13c.1-.61.15-.74.44-1,.06-.36.1-.71.17-1.06s.17-.72.25-1.07A.4.4,0,0,0,31,21l-.17.18a4.76,4.76,0,0,1-.22,1.06,9.37,9.37,0,0,1-.48,1c-.15.36-.52.52-.7.81l-.67.17.11-.69a6.05,6.05,0,0,1-.67-.47.62.62,0,0,0-.62-.15,1.78,1.78,0,0,0-1,.63c-.33.41-.33.4-.29.95a.85.85,0,0,1-.06.19l-.52-.15Zm8.36-8.49a1.35,1.35,0,0,1,.43-.35,2.52,2.52,0,0,0,.48-.4l.46-.12a1.42,1.42,0,0,1,.19-.32,7.41,7.41,0,0,1,.58-.48l.13.28.18-.62a.45.45,0,0,1-.16,0,.91.91,0,0,0-.74.19c-.34.23-.62.55-1,.79a2.31,2.31,0,0,0-.62.81s0,.08.16.14a1.65,1.65,0,0,1-.22.23,2.67,2.67,0,0,1-.74.3.66.66,0,0,0-.32.21,2.1,2.1,0,0,0-.25.31l.24.32c.27,0,.28-.25.4-.39l.39-.1.93-.74,0-.27C34.73,16.27,34.56,16.31,34.29,16.4ZM39.75,16l.36-.84-.33.18a.61.61,0,0,1-.05-.18c0-.23.06-.45.07-.68,0-.07,0-.2,0-.21s-.12-.31-.23-.46l-.33-.27-.41.18-.28.47.11.41.42.43c-.1.28-.07.6-.31.81l-.13-.05-.19.67-.72,0-.35-.14-.1-.4.2-.33-.14-.27-.27.43-.31.08-.38-.47-.31.4.14.55-.14.26.14.16,0,.05-.33-.13-.44.12.1.06-.32.25,1,.44.25-.07a3.7,3.7,0,0,0,1.16-.39c.06,0,.17,0,.26,0h.55L38,16.72c.33.06.45-.35.78-.18,0,0,.11-.07.17-.11Zm.11.44a3.72,3.72,0,0,0-.63.32.7.7,0,0,1-.77.1s-.05,0-.07,0c-.06.22.13.26.25.35l-.08.13.33.13v.31l.69-.18.27.33,1.07-.13c.06-.08.26-.09.22-.29l.35-.23.11-.32c.06,0,.11.07.15.06A1.36,1.36,0,0,0,42,17l-.14-.09c.67-.54.94-.83,1-1.07-.12,0-.27,0-.31.08-.13.23-.33.14-.47.1a.48.48,0,0,0-.44.11,1.53,1.53,0,0,0-.41.31c-.1.14-.31.15-.41.31s-.08,0-.12,0l0-.29C40.35,16.58,40.09,16.42,39.86,16.4Z"/><path class="cls-3" d="M31.05,36.05c.25.19.53.09.79.07a3.32,3.32,0,0,1,1.22.25c.19.05.33.25.45.34l.87,0,.43.49.32,0,.59.85c0,.24-.16.5,0,.67a3.45,3.45,0,0,0,.73.7,2,2,0,0,1,0-.93l.51-.13a1.45,1.45,0,0,1,.59.63l-.22.31a.9.9,0,0,0-.19.05,2.19,2.19,0,0,0-.23.21l1.1-.07.13-.28c.24-.06.23-.06.35.12s.25.31.21.51c.27.16.59.11.81.32.19,0,.3.13.45.19l.41.16a.77.77,0,0,0,.38.1c.24,0,.35.1.48.25l.89,0c.27-.25.61-.52.91-.82a.38.38,0,0,1,.47-.12,5.26,5.26,0,0,0,.6.18,2.62,2.62,0,0,1-.48.83c.19-.07.41,0,.57-.21a.3.3,0,0,1,.34,0,2.12,2.12,0,0,0,.47.05s0,0,0,0a.8.8,0,0,1,0,.2l-.56,1.53.23.24c.18.1.37-.15.51.08a3.51,3.51,0,0,1,.05,1.3l.28.18c-.06.2-.1.42-.18.62a.61.61,0,0,1-.54.35l.11.41c-.16.18-.46.05-.54.24l-.35,0V46l.58,0c.13.15.28.32.42.5a1.05,1.05,0,0,1,.07.26l-.27.37.26,0,.31.21h-.22c-.05.2-.1.43-.17.65-.15.46-.57.67-.91.94-.05,0-.17,0-.25,0-.2-.4-.05-.79-.05-1.21l-.23-.13a.65.65,0,0,1-.32.84l.17.34-.74-.2.56,1-.27.33-.29.07a2.16,2.16,0,0,0-.76-.6l-.15-.55-.12.37a4.64,4.64,0,0,0-2.2-.46l-.46.21.05-.38H37.58l-.06-.26c-.18-.07-.21,0-.18.14l-.53.06c-.16-.13-.06-.31,0-.52a2,2,0,0,1-.59.23l-.2-.13.05-.7-.72.3-.18-.09.33-.48L35.29,47a1.79,1.79,0,0,1-1.53.59c0-.18-.19-.34,0-.55a2.72,2.72,0,0,0,.37-.13,2.33,2.33,0,0,0,.34-.2c-.11-.22-.31,0-.49-.07l-.32-.44c-.29.3-.17.74-.37,1.09a5.38,5.38,0,0,1-.58-.89,3.47,3.47,0,0,1-.41-1.14,2.9,2.9,0,0,1,.09-1.14,4.5,4.5,0,0,0-.9-1.2.49.49,0,0,0,0-.12,2.9,2.9,0,0,1-.14-1.24,8.34,8.34,0,0,0,0-.88,1.62,1.62,0,0,0-.77-.71,2.88,2.88,0,0,1-.45-.41l-.21-.81a.75.75,0,0,0-.12-.07,1.45,1.45,0,0,1-1-.66,4.58,4.58,0,0,0-.38-.36l-.07-.27.2-.34.85-.22.45-.68.67-.18A.81.81,0,0,0,31.05,36.05Z"/><path class="cls-2" d="M39.81,31.62a2.22,2.22,0,0,1,.12,1.21c0,.1.06.23.08.33l.51.4a3.53,3.53,0,0,0,1.33,0,.78.78,0,0,0-.06.19s0,.09,0,.13a1.18,1.18,0,0,0,1,.27,1.94,1.94,0,0,1,1.43-.72c.4-.06.81,0,1.22,0,.15,0,.33.12.49.18l-.17.48.31-.08.2.23a2.26,2.26,0,0,1,0,1.68l-.49.37,0-.5-.34-.45a1,1,0,0,0,0,.73l-.44.47a2,2,0,0,1-1-1.08,2.52,2.52,0,0,0-.3.35,3.3,3.3,0,0,0-.19.43,1.42,1.42,0,0,1-1.4-.5c-.2,0-.15.34-.36.38l-.09,0-.47-.27a1.61,1.61,0,0,1-1.78-.38l.25-.7c-.42,0-.8.1-1.18.07-.07,0-.15.08-.26.15l-1-.21-.35.3a1.31,1.31,0,0,1-.31-1,1.44,1.44,0,0,0-.14-.56c.54-.19,1,.13,1.5.18l.28-.32a.63.63,0,0,0-.29-.53,2.6,2.6,0,0,0-1.25-.07L36,32.35a.64.64,0,0,1-.36-.54,5.33,5.33,0,0,1,1.64-.29,2.66,2.66,0,0,0-.83-.25A1,1,0,0,1,35.7,31c.2-.09.4-.2.6-.27a3,3,0,0,1,.63-.17c.37,0,.73-.06,1.1-.08.06,0,.12.07.19.11l-.07.2,1.37.07c0-.12.07-.28.14-.32s.19-.14.3-.18a1.14,1.14,0,0,0,.38-.32l.45.12,0,.62a5,5,0,0,0-1.25.77Z"/><path class="cls-2" d="M53.63,33.8l.47.13.29.25-.53.8-.82.36-.24-.15.25-.44-.63.17-.29-.43-.4.34-.12-.19-.07.07-.13-1a1.19,1.19,0,0,0-.1,1.17l-.1.17c-.16,0-.24,0-.67-.53a5.18,5.18,0,0,0-.24-1.36l-1-.78-.07-.26.57-.15-.16-.19c-.11-.14-.06-.25.05-.39a6.48,6.48,0,0,1,1,.29.81.81,0,0,0,.8-.11.62.62,0,0,1,.33-.13c.45,0,.9-.08,1.36,0l.11.43.33.27.31,0,.17.63a1.23,1.23,0,0,1-.76,0,1.1,1.1,0,0,0-.66.07c.18.12.34.21.5.3a2.81,2.81,0,0,1,1.07.16l.06.25-.7.18Z"/><path class="cls-2" d="M22.63,54.1l.13-.21a1.79,1.79,0,0,1,1.53.19l.21.81c-.29,0-.49-.28-.78-.2l.2.79-.42.14-.88-.33c-.18.14,0,.33,0,.5l-.83.73c0,.19.07.43-.24.46-.21.26-.56.39-.73.71l.13.49-.47.12-.33-.2-.22.29a1.86,1.86,0,0,0-.22-.19,1.94,1.94,0,0,0-.24-.15c-.08-.29-.15-.6-.24-.89s-.19-.47-.27-.71a1.28,1.28,0,0,1,0-.34l-.36-.18-.05-.61c0-.21-.34-.28-.28-.58a.43.43,0,0,1,.17,0l.57.48a1.54,1.54,0,0,1,.17.19s0,.12.06.17a2.24,2.24,0,0,0,.22.22,1.83,1.83,0,0,1,0-1c.31,0,.28.21.35.37.24,0,.31-.19.52-.28l.35,0a.34.34,0,0,1,0,.1c0,.21,0,.44.05.65l.44,0,.21-.24a.67.67,0,0,0,.21-.64c-.05-.19,0-.29.24-.34l.32.16.08-.28L22,54.2C22.21,54,22.42,54.18,22.63,54.1Z"/><path class="cls-2" d="M15.49,13.57c0-.18.11-.35.34-.37l.07-.38c.22-.4.77-.52.92-1,.45-.12.74-.53,1.13-.8,0-.42.44-.5.68-.74a5.8,5.8,0,0,1,.79-.59c.14-.09.26-.25.48-.18l0,.11a1.36,1.36,0,0,0,.32-.16l-.07-.28c.2-.23.54-.29.65-.61.36,0,.57-.31.84-.5s.78-.5,1.18-.76l-.06,0c.22-.3.61-.29,1-.44l-.2,0-.15,0,.74-.2V6.47l-.18,0a1.35,1.35,0,0,1,.28-.22A2,2,0,0,0,24.59,6c.09-.06.23,0,.41,0l-.21-.14.38-.06,0-.14.22,0,0-.19c.31,0,.49-.24.75-.31A6.33,6.33,0,0,0,27,4.81l.44.12-.22.37-1,.61c.06.3-.25.41-.44.55-.39.31-.84.55-1.26.83-.25.17-.48.36-.74.57l-.14-.07L23.4,8s0-.06,0-.08.28-.12.17-.32c-.11,0-.18.25-.29.06-.18.13-.39.21-.42.46l.33,0-.83.61L22.23,9c-.4,0-.64.29-1,.45-.07,0-.13.12-.22.13a1.28,1.28,0,0,0-.68.38A16.15,16.15,0,0,1,19,11a4.6,4.6,0,0,0-.74.66,5.6,5.6,0,0,1-1,.89,8.62,8.62,0,0,0-.89.67s0,.1-.06.18l-.66.29Z"/><path class="cls-2" d="M87.71,66.87l.13.49a1.78,1.78,0,0,0-.21.85l-.56,1.14,0,1.16a.6.6,0,0,1-.74.24,5.5,5.5,0,0,0-.67,1.46A2.18,2.18,0,0,1,85,73.34s0,.1,0,.16l.71-.46c.2.44.55.84.22,1.39l-.28.07-.22-.32c-.24.1-.41.38-.72.35,0,0,0-.07,0-.09a2,2,0,0,0,.22-1A1.49,1.49,0,0,1,85,73a1.81,1.81,0,0,0,.09-.73.73.73,0,0,1,0-.42c.19-.4.39-.79.61-1.18a4.89,4.89,0,0,1,.43-.55l-.4-1.06c0-.08.06-.13.09-.15.27-.22.28-.22.3-.51s0-.78,0-1.17c0-.23-.18-.4-.29-.58s-.07-.13-.14-.25l-.68-.22a1.27,1.27,0,0,1,0-1l.79-.11.54.25.21.8.52.21A.62.62,0,0,0,87.71,66.87Z"/><path class="cls-3" d="M29.62,49.57c-.19.16-.32.36-.63.35a3.18,3.18,0,0,1-.44-.36,1.18,1.18,0,0,1-.25-.4,3.61,3.61,0,0,0-.37-.8.41.41,0,0,1,0-.38c.17-.43.3-.88.47-1.4l.29.37.46-.59.15.5c.17.06.26,0,.31-.17l.2-.51a3.83,3.83,0,0,1,.42.32c.15.15,0,.34,0,.5l-.6.51L30,48a.69.69,0,0,1-.25.45c.08.26.36.43.38.72a4.09,4.09,0,0,1,0,.49Z"/><path class="cls-2" d="M24.2,28.82l-.76-.28-.25-.48.2-.29.28-.08.34.38.18-.17c.08-.28-.11-.64.18-.94l0,.35a.81.81,0,0,0,.53-.3c.42-.42.81-.87,1.21-1.3l.17.09-.08.33.27.07a2.42,2.42,0,0,0,.2,1.15,1.67,1.67,0,0,1,.15,1.34l0,.13v0l-.2.18s0,0,0,0c-.12-.43-.23-.86-.33-1.26l-.08,0-.08.37-.26.23-.11-.26c-.22-.08-.29.22-.49.19l-.11.38-.51.29-.15-.54-.13.21C24.27,28.67,24.23,28.75,24.2,28.82Z"/><path class="cls-2" d="M44.31,64l.35-.59c.27,0,.39-.26.61-.37l-.17-.18.84-.5L46,62l1-.48.12-.32.07,0,0,.26a1.48,1.48,0,0,1,.83-.08l.44-.21.3-.15.26.28-.25.26,0,0,0,0c-.28,0-.48.25-.74.29a5.06,5.06,0,0,0-1.53.7c-.12.06-.2.2-.3.31l-.44.48-.68.68-.22.73c.17.19.17.19.26.79l-.91-.42s0-.12,0-.18v-.25l-.35-.31L44,64Z"/><path class="cls-2" d="M54.8,34.21l.85-.22a.48.48,0,0,0,.14.61,2.37,2.37,0,0,1,.27.37c-.16.22-.31.46-.49.68s-.36.42-.53.61l.08.3-.11.18a1,1,0,0,1-.81-.2c-.2-.21-.44-.21-.72-.35l-.33-.54.06-.13a7,7,0,0,0,1-.51A1.37,1.37,0,0,0,54.8,34.21Z"/><path class="cls-2" d="M81.2,61.48l.13.07-.44.6.73.71.85-.22.38.09-.47.28.18.48a.53.53,0,0,1-.51-.07,3,3,0,0,0-1-.43.33.33,0,0,1-.16-.09c-.18-.13-.35-.28-.54-.39a6.9,6.9,0,0,0-.66-.28,3.39,3.39,0,0,0-.61,0c-.12,0-.28-.08-.41-.14l-.53-.28L78,61.23l-.36.09,0-.15s0-.05.07-.05c.27,0,.54.08.81.08a1.54,1.54,0,0,1,.59.17,2.41,2.41,0,0,0,1.5.15A6.28,6.28,0,0,1,81.2,61.48Z"/><path class="cls-2" d="M84.5,62.58l-.12-.45.6.11c0,.3-.09.58-.13.86,0,.07,0,.19,0,.21.23.16.15.43.26.61l-.71.75.39.61-.36.6L84,65.73l-.24-.47.22-.59-1-.86a7.49,7.49,0,0,0,.94-.53A5.19,5.19,0,0,0,84.5,62.58Z"/><path class="cls-3" d="M47.54,37.84l-.63-.34-.56.15a1.61,1.61,0,0,1-1,.52L45.14,38l.06.39c-.21-.26-.15-.62-.36-.88l0,0,.28-.32a1.45,1.45,0,0,0,.54-.15c.15-.12.34-.18.49-.28a1,1,0,0,1,.65-.12,3.14,3.14,0,0,0,.81.08,2,2,0,0,0,.56,1.2.85.85,0,0,1,.7.22l0,.29-.34.09-.29-.28-.38.1a1.53,1.53,0,0,1-.22-.23A.83.83,0,0,1,47.54,37.84Z"/><path class="cls-2" d="M19.65,53.87a4.91,4.91,0,0,0-.38-.71,1.28,1.28,0,0,1-.09-.85c.3-.05.52.18.77.29l.68-.34c.19.2.39.43.62.65s.33.31.43.66l-.34.57c-.18,0-.39,0-.49-.26-.12.24-.36.16-.51.25Z"/><path class="cls-2" d="M15.49,13.57l.11.07a.25.25,0,0,1-.09.31l-1.25,1.13c-.31.3-.58.64-.91.92s-.65.65-1,1-.43.41-.66.62a.69.69,0,0,1-.15.07h-.08l0-.08.38-.35-.45.07c0-.05,0-.09,0-.11.26-.25.46-.54.71-.78s.65-.69,1-1.06c0,.17-.07.24-.13.37a.73.73,0,0,0,.2-.1,2.65,2.65,0,0,0,.21-.26l-.1-.06c.3-.14.23-.49.41-.69s.38-.36.61-.58a.86.86,0,0,0,.46-.21A1.09,1.09,0,0,1,15.49,13.57Z"/><path class="cls-3" d="M42.55,55.29l-.25,0c-.22,0-.44-.14-.6.11,0,0-.12,0-.18,0a2,2,0,0,0-.43,0,2,2,0,0,0-.39.19l-.2.05a.75.75,0,0,1,.14-.7l.36-.09c.12-.47.28-.67,1.09-1.34l.24.06.16.18-.16.09c0,.08.07.2.14.24s.19,0,.33,0C42.84,54.56,42.6,54.89,42.55,55.29Z"/><path class="cls-3" d="M51.75,37.08,51.31,37l.1.38.13-.11.05.14-.16.11.1.38-.07,0,0,.24-.09,0-.17-.24a1.73,1.73,0,0,0,0-.24c0-.12-.06-.23-.1-.39l-.2.15c-.28-.18-.29-.34,0-.8a3.17,3.17,0,0,0,1.45-.42,1,1,0,0,1,.17.13.37.37,0,0,1,0,.17l-.65.35c.41,0,.75,0,1.08.07a1.06,1.06,0,0,1,.35.18l-.59.85C52.18,37.9,52,37.51,51.75,37.08Z"/><path class="cls-2" d="M43.46,28.3a5.31,5.31,0,0,0,0,.81,5.63,5.63,0,0,0,.19.76l-.25.07-.07-.24-.41.08a2.65,2.65,0,0,0-1.06-.23l-.24-.29-.4.1-.06-.24.1-.18.65,0,.31.18.61-1,.28.34Z"/><path class="cls-2" d="M26.41,8.6a10.26,10.26,0,0,1,1.51-.86c.2-.1.38-.28.64-.17.21-.09.46,0,.63-.24s.23,0,.34,0,.43.13.6-.12c0,0,.15,0,.22-.06s.36,0,.48-.22a.19.19,0,0,1,.18,0,.6.6,0,0,0,.52-.13,2.3,2.3,0,0,1,.56-.19s0,0,0-.09l.1.14a.11.11,0,0,0,.08,0A3.13,3.13,0,0,0,33.44,6c.26-.18.52-.34.87-.56a1.17,1.17,0,0,1-.54.56,2.12,2.12,0,0,0-.48.29c-.14.12-.38,0-.46.25,0,0,0,0,0,0L31.68,7a3.53,3.53,0,0,1-.89.33l-.34,0a1.08,1.08,0,0,0-.55.24.65.65,0,0,1-.28.13,4.33,4.33,0,0,1-1.24.24.3.3,0,0,0-.32.14.13.13,0,0,1-.07,0C27.47,8.17,27,8.49,26.41,8.6Z"/><path class="cls-2" d="M48.26,34.59l0-.67c.17-.11.3-.37.6-.37a3.18,3.18,0,0,0,.93.86l0,.19a.39.39,0,0,1-.11.06h-.44a2.77,2.77,0,0,1,.15.24c0,.07.07.15.12.24s.06.2-.09.27-.11.19-.18.3c-.06-.09-.08-.29-.24-.28s-.23.11-.37.18l-.1-.31.21-.3Z"/><path class="cls-3" d="M52.73,57.73A1.66,1.66,0,0,1,53,57c.36.09.52.45.8.64s.35.6.59.87l-.3.34-.34-.07a.82.82,0,0,1-.63-.44A4.13,4.13,0,0,0,52.73,57.73Z"/><path class="cls-2" d="M62.15,54.14l.52.29a3.37,3.37,0,0,0-.34,1.26c-.25-.08-.44,0-.64.06l-.42-.35-.05-.21A2,2,0,0,1,62.15,54.14Z"/><path class="cls-2" d="M85.43,82.55l.07.14h.26l.06.22c-.13.18-.36.33-.3.63l.4.09-.42.45-.38,0,0,.22-.58.15-.05-.14.27-.12-.25-.49C84.64,83.13,85.17,83,85.43,82.55Z"/><path class="cls-2" d="M48,36a1.25,1.25,0,0,1-1,0l.14-.71.31-.27.14-.62c.27-.07.33,0,.39.16s.09.43.16.63A.8.8,0,0,1,48,36Z"/><path class="cls-2" d="M62,19.39l-.16-.61a1.24,1.24,0,0,1-.58-.76l.27-.07.85.69c0,.34.38.48.41.84l.42.22.15.57a.77.77,0,0,1-.47-.27c-.14-.13-.37-.18-.5-.32S62.06,19.58,62,19.39Z"/><path class="cls-2" d="M24.1,9.22c.18,0,.15.31.4.16l-.14-.2s0,0,.05,0a1.86,1.86,0,0,1,.91,0l-.24.11c0,.18-.15.25-.28.37l-.44-.09,0,.24-.67.34.11.07v0a10,10,0,0,0-1.72.66c.19-.26.5-.34.72-.55s.22-.17.34-.26.22-.14.32-.21.23-.17.33-.27A4.68,4.68,0,0,0,24.1,9.22Z"/><path class="cls-3" d="M49,36.69l.35-.09c.39.09.07.41.25.59l.32-.08,0,.53-.55.33h-.29A1.9,1.9,0,0,1,49,36.69Z"/><path class="cls-3" d="M54.09,38.16a2.5,2.5,0,0,1-.46.46c-.2.11-.31.3-.54.4L52.58,39l.21-.66c.32-.12.62-.25.93-.35S54,37.9,54.09,38.16Z"/><path class="cls-2" d="M14.69,68l.08-.14s.09,0,.11,0,.21.22.24.35c.06.32.31.52.43.8a3,3,0,0,0,.25.41l-.65.31Z"/><path class="cls-2" d="M15.09,64.49l.1.36.27.12-.2.57-.66.17-.38-.52C14.38,64.84,14.87,64.87,15.09,64.49Z"/><path class="cls-2" d="M83.73,82.61l-.49.12-.19-.11a2.53,2.53,0,0,1,.4-1.28l.25-.06A4.54,4.54,0,0,1,83.73,82.61Z"/><path class="cls-2" d="M47.78,31.58l.27.14.27-.07.47.28-.39.59a1.39,1.39,0,0,1-.66-.51C47.61,31.84,47.61,31.84,47.78,31.58Z"/><path class="cls-3" d="M54.67,59.32l-.14-1.1.1-.16.64.18.1.4Z"/><path class="cls-2" d="M44,36.13l.47.29,0,.61-.13-.21-.41.11-.7-.35Z"/><path class="cls-2" d="M76.6,89.72l.14-.36-.23,0a.93.93,0,0,1,.21-.1.5.5,0,0,1,.12,0l1.09-.82c0,.23,0,.46-.18.62C77.41,89.33,77.13,89.69,76.6,89.72Z"/><path class="cls-2" d="M86.26,72.5l-.33.29-.15-.09v-.5c.31-.14.22-.47.27-.74l.45-.37.09.37a2,2,0,0,0-.32.47A1.56,1.56,0,0,0,86.26,72.5Z"/><path class="cls-2" d="M70.42,31.8l-.07-.27.08-.14a2.25,2.25,0,0,1,1,.26s0,.09,0,.18l-.26.3C71.08,32.16,70.9,32.1,70.42,31.8Z"/><path class="cls-2" d="M88.25,82.77l-.15-.08s0-.06,0-.07.13-.33.26-.43a1.52,1.52,0,0,0,.29-.39l.32-.46.38-.1-.16.33-.12,0a5.19,5.19,0,0,1-.35.66A5.78,5.78,0,0,1,88.25,82.77Z"/><path class="cls-2" d="M54.15,99.71l.25-.18a2.4,2.4,0,0,1,1.47.06s0,.08,0,.08A4.2,4.2,0,0,1,54.15,99.71Z"/><path class="cls-2" d="M40.84,32.65l.33-.38a.76.76,0,0,1,.4.62l-.17.27-.18.05A.68.68,0,0,1,40.84,32.65Z"/><path class="cls-2" d="M64,23.24l.48-.65L64.32,22a1.2,1.2,0,0,1,.23.55c.06.21.11.42.16.62l-.12.39Z"/><path class="cls-2" d="M71.57,95.29c.3-.05.53-.25.83-.33a4.58,4.58,0,0,0,.74-.36,2.68,2.68,0,0,1,.87-.27,1.12,1.12,0,0,1-.2.18c-.43.2-.88.38-1.3.62a3.63,3.63,0,0,1-.89.23S71.58,95.31,71.57,95.29Z"/><path class="cls-2" d="M24.93,62.76h-.64c.19-.26,0-.65.43-.74l.41.43Z"/><path class="cls-2" d="M66.28,45.2l.24.51-.2.18-.52-.41.12-.58a.86.86,0,0,1,.22.12A.66.66,0,0,1,66.28,45.2Z"/><path class="cls-2" d="M48,36.47h.35l.19.26-.3.49A1.65,1.65,0,0,1,48,37a2,2,0,0,1-.19-.26Z"/><path class="cls-2" d="M60.56,96.15l3.63-.94A21.52,21.52,0,0,1,60.56,96.15Z"/><path class="cls-2" d="M62.4,53.78l.53-.72c.18,0,.18.17.23.36l-.27.27C62.78,53.69,62.65,54.07,62.4,53.78Z"/><path class="cls-2" d="M15.73,65l-.09-.35.25-.26a1.81,1.81,0,0,1,.31.09,1.34,1.34,0,0,1,.2.21C16.24,64.94,16,65,15.73,65Z"/><path class="cls-2" d="M41.44,28.33l.24-.61.32-.08c.21.2-.1.36,0,.55Z"/><path class="cls-3" d="M42.29,55.88l-.16.09-.07.4-.5-.11,0-.37.22.06L42,55.7Z"/><path class="cls-2" d="M11.53,17.58l0,.08h.08c0,.22-.21.26-.31.39L11.11,18l-.44.57-.25.07,1-1.16Z"/><path class="cls-2" d="M63.88,55.11a2.42,2.42,0,0,1-.42.77l-.19-.32.09-.32Z"/><path class="cls-2" d="M70,96.17l.21.13-.44.08c-.15.08-.32.33-.67.23-.15,0-.35.08-.53.1a.78.78,0,0,1,.46-.18,1.91,1.91,0,0,0,.43-.21A4.77,4.77,0,0,1,70,96.17Z"/><path class="cls-2" d="M88.61,71.05a.34.34,0,0,1,0,.17l-.85,1.46s-.1,0-.16.07Z"/><path class="cls-2" d="M70.85,39.81l.37.18-.14.47.17.39-.16.06-.23-.44A.84.84,0,0,0,70.85,39.81Z"/><path class="cls-2" d="M83.25,87.94a2.3,2.3,0,0,1,1.28-1.1l-.68.58Z"/><path class="cls-2" d="M50.92,48.85l0,.09-.05-.06Z"/><path class="cls-2" d="M49.54,49.12l.12.06-.09,0Z"/><path class="cls-2" d="M49.59,49.3l-.09,0,.07-.11Z"/><path class="cls-2" d="M49.81,50.49l0-.09,0,.07Z"/><path class="cls-2" d="M71.4,11.22c.07,0,.16,0,.21,0l1.83,1.07s.08.12.11.18l-1.5-.85C71.82,11.51,71.61,11.36,71.4,11.22Z"/><path class="cls-2" d="M29.45,24.76c-.14.06-.2.24-.36.19s-.24.15-.38.18a.51.51,0,0,0-.35.17s-.2,0-.28.08a2,2,0,0,1-.21-.07l.55-.3a2.18,2.18,0,0,1,.47-.21A3.43,3.43,0,0,1,29.45,24.76Z"/><path class="cls-2" d="M27.49,23.35l-.68.51,0-.32.19-.17.86-.23.05.3Z"/><path class="cls-2" d="M51.16,50.14l0-.09,0,.06Z"/><path class="cls-2" d="M51.09,50.25l.07-.11,0,.09Z"/><path class="cls-3" d="M59.29,50.71c-.45-.68-1.26-2.1.05-3.26,0,0,.2-1.1-1.74-.44a.64.64,0,0,1,.06-1s-1-.76-1-1.24.61-.64.26-1.09-.76-.23-1-.64.16-.59,0-1-.58-1.45-1.15-1.2-1.11-1.22-1.25-1.43-1.15-1.2-2.07-.66-1,.42-1.14,1.24a2,2,0,0,1-1.49-1c-.54-.92-.89-1-1.43-.7s-1.09-.45-1.53-.1-1.08,1-1.74,1-.94.62-1.17.64-1.11.07-.85.56A2.48,2.48,0,0,1,42,42.14c-.19.36-1,.75-.94.43s-.16-.62-.48-.36a1.81,1.81,0,0,1-1.57.12c-.32-.22-1.65-1-2.08-.77s-1.45-.63-1.66-.86-.85-1.21-1-1.51a1.65,1.65,0,0,0-1.09-.56c-.4,0-1-.54-1.4-.36a.94.94,0,0,0-.36,1,1.69,1.69,0,0,0-.55.18c-.33.15,0,.76.26,1a3.78,3.78,0,0,1,1,1.28c.12.47-.26.35-.08,1.09a3.2,3.2,0,0,0,.69,1.43l.18.19A1.68,1.68,0,0,0,32.5,46c.18.92.45.87.63.87s.09-.61.21-1,.72.26.91.56,1.09.26,1.09.26.29.54.13.77-.07.35.1.61.44,1.05.91,1.11.79-.1,1,.24.31.29.06.75-.37.73.29.91.16.14.42.64.23.16.85.36.7,0,1,.47.56.67.89,1.18.64.32,1,.51a1.51,1.51,0,0,1,.7.69,1.48,1.48,0,0,0,.92.56s-.4.32-.68.08-.35-.26-.6,0,.18.74.5,1a5.16,5.16,0,0,1,.8.75s.89.15.7-.15.07,0,.32-.15.47-.68.63-.35a.54.54,0,0,1-.06.63c-.11.19,0,.53.24.85s.64.11.82,0,.39-.14.65-.19.06-.28-.08-.55a1.17,1.17,0,0,1,0-.83c.07-.21.21-.42.49-.32s.48.25.39.6.16.62.24.86-.18.35-.33.74.26.52.49.44.56-.2.81,0,.63-.16.49-.44-.11-.66.13-.73.59.34.67.41.36-.07.56-.2,1.07.15.92.53,0,.82.24.74a2.09,2.09,0,0,0,.83-.59,3.06,3.06,0,0,0,.44-.94c.1-.47.24-1.17,0-1.39s-.79-.78-.59-.91a.93.93,0,0,1,.93.12c.17.21.14-.21.37-.48a3.43,3.43,0,0,1,.73-.69,5.83,5.83,0,0,1,.77-.42c.19-.08.46,0,.34-.42a.53.53,0,0,1,.31-.77,2.7,2.7,0,0,1,.89-.43,1.61,1.61,0,0,0,.87-.53A10.63,10.63,0,0,1,59.29,50.71Z"/></svg>
