<svg xmlns="http://www.w3.org/2000/svg" width="130" height="150" viewBox="0 0 130 150"><defs><style>.cls-1{fill:#e6e6e6;}</style></defs><title>Boston2_v5b-modified</title><g id="Layer_1" data-name="Layer 1"><path class="cls-1" d="M64.42,17.81a2.31,2.31,0,1,0-2.31-2.31A2.3,2.3,0,0,0,64.42,17.81Z"/><path class="cls-1" d="M69.86,24.18l-.08-.05A11,11,0,0,0,68.64,21a7.46,7.46,0,0,0-1.36-1.79A4.09,4.09,0,0,0,65,18h0l-.16,0H64l-.16,0h0a4.11,4.11,0,0,0-2.3,1.21A7.43,7.43,0,0,0,60.2,21a11.06,11.06,0,0,0-1.15,3.11l-.08.05a.89.89,0,0,0-.32.76c0,.46.27.8.61.8h0a.59.59,0,0,0,.4-.21.9.9,0,0,0,.24-.5.39.39,0,0,0,.28-.11.3.3,0,0,0,.11-.23A.6.6,0,0,0,60,24.2a1,1,0,0,0-.25-.12,10.59,10.59,0,0,1,1.34-2.67A6.52,6.52,0,0,1,62.38,20l.13-.11.06-.06c-.37,1.33-.7,3.4-1,4.76a9.4,9.4,0,0,0-.2,1.14l0,.14c0,.42-.1.84-.13,1.25-.07.83-.13,1.66-.16,2.46a32.43,32.43,0,0,0,.07,4.52l-1.09.25-.56.84.3,0c.82,0,1.64-.06,2.4-.07h.18V34.9a34.12,34.12,0,0,1,.29-5.4c.1-.79.22-1.6.36-2.4.06-.4.14-.79.22-1.18v-.06h2.34v.06c.08.39.15.78.22,1.18.13.8.25,1.61.35,2.4a34.12,34.12,0,0,1,.29,5.4v.21h.18c.77,0,1.58,0,2.4.07l.3,0-.55-.84-1.09-.25a34.05,34.05,0,0,0,.06-4.52c0-.8-.08-1.63-.16-2.46,0-.41-.07-.83-.13-1.25l0-.14a9.4,9.4,0,0,0-.2-1.14c-.28-1.36-.61-3.43-1-4.76l.06.06.14.11a6.78,6.78,0,0,1,1.29,1.4,11.3,11.3,0,0,1,1.34,2.67.89.89,0,0,0-.26.12.6.6,0,0,0-.32.49.34.34,0,0,0,.11.23.39.39,0,0,0,.28.11,1,1,0,0,0,.24.5.59.59,0,0,0,.41.21h0c.34,0,.61-.34.61-.8A.86.86,0,0,0,69.86,24.18Z"/></g></svg>