<svg id="Layer_1" data-name="Layer 1" xmlns="http://www.w3.org/2000/svg" width="28" height="28" viewBox="0 0 28 28"><defs><style>.cls-1{fill:#e6e6e6;}.cls-2{fill:#b3b3b3;}.cls-3{fill:gray;}</style></defs><title>Boston2_v1</title><circle class="cls-1" cx="14" cy="14" r="14"/><path class="cls-2" d="M26.43,17.17a1,1,0,0,1-.2-.7c0-.14-.16-1.38-.41-1.38s-.36.28-.55.38-.25.62-.15,1a.86.86,0,0,1,0,.73c-.11.13-.14.23,0,.37a.65.65,0,0,1,.13.77c-.17.26-.26.41-.36.58a.51.51,0,0,1-.57.15c-.19-.08-.14.62-.15.78s-.22.36-.31.51-.14.4-.42.49a2.44,2.44,0,0,0-1,.69c-.14.25-.67.08-.93-.07s-.46.06-.61.23-.3.11-.5.08-.44,0-.45-.27.5-.45.16-.54-.45.16-.49-.15,0-.68.24-.69.52.39.66.21.07-.53-.15-.56-.2-.22-.1-.45.51.1.54-.22.15-.32,0-.73.09-.22.19-.51.05-.59-.32-.65a.73.73,0,0,0-.82.23c-.21.25-.19,0-.26-.11s-.3-.07-.17-.52.34-.5.21-.9c0,0,.56-.64.45-.73s-.68.61-.85.6c0,0-.16-.49-.44,0,0,0-.26.07-.16.4s-.56.13-.44-.46.52-.81.28-1.23-.82-.16-1.11-.47,0-.39-.16-.71a1.08,1.08,0,0,1,0-1.1c.27-.39,1.28-.94.87-1.05a1.89,1.89,0,0,1-1-.37s-.52.27-.63-.46-.64-.11-.66.28a1.39,1.39,0,0,1-.34-1.25c.22-.65-.36-.44-.57-.48s-.27-.46-.38-.52-.39-.59-.28-.83c0,0,.29.22.3-.11s-.12-.59-.05-.79.56-.06.73-.47.36-.44.66-.35.36,0,.26-.34.5-.05.39-.4-.51,0-.84.23,0-.61.25-.8.9-.92,1.1.26.76-.31.43-.53.12-.28.37-.31.78-.13.68-.4.77-.07,1,.14a2.21,2.21,0,0,1,.5,1.25.4.4,0,0,0-.54.34c-.08.49.77.92.93.89s.4.23.48-.19.52-.42.92-.35a.41.41,0,0,0-.29-.36c-.27-.07-.18-.13-.1-.34s.27-.21.44.23.59.18.42-.1-.25-.28-.41-.42.31-.44.59-.17,1,.83,1.34,1.15.42.2.61.26a1.39,1.39,0,0,1,.75,1.07c.14.67.57.22.91.76s.26.17.54.61a6,6,0,0,1,.95,1.71,9,9,0,0,1,.42,2.48,5,5,0,0,1-.12,2c-.24.38.13.81-.08,2a8.19,8.19,0,0,1-.48,2c-.17.36-.09-.63-.18-1.11S26.53,16.08,26.43,17.17Z"/><path class="cls-2" d="M19,20.76a3,3,0,0,1,.19.86.8.8,0,0,1-.51.83c-.34.18-.54,0-.75.11a1.57,1.57,0,0,0-.53.74c-.07.19-.14.24-.4.2s-.32-.69-.55-.66-.41.1-.6-.07-.36.07-.52-.08.07-.46-.19-.66-.49-.22-.46-.66A3,3,0,0,1,15.08,20c.18-.16.43-.57.52-.6l.44-.14c.45-.14.54-.1.67-.27a.73.73,0,0,1,.85-.17c.29.19.57.15.74.53A3.84,3.84,0,0,1,19,20.76Z"/><path class="cls-2" d="M26.52,18.35c.23-.39.26-.72,0-.79s-.74.49-.64.84a.93.93,0,0,1,0,.8c-.13.17-.33,0-.62.61s-.19.67,0,.62a.86.86,0,0,0,.6-.42C26,19.7,26.35,18.64,26.52,18.35Z"/><path class="cls-2" d="M24,21.18c-.22,0-.39-.05-.48.49a1.21,1.21,0,0,1-.73.89c-.21.1-.5.32-.63.26s-.32-.18-.47.28-.37.4-.59.29-.65-.48-.84-.31-.49.44-.61.37.11.73-.15,1a2.87,2.87,0,0,0-.69,1.17c0,.34.23.39.76.11s1-.58,1-.89,1.12-.92,1.38-1A2.84,2.84,0,0,0,23.13,23c.24-.36.38-.3.65-.31s.48,0,.6-.53a1.63,1.63,0,0,1,.64-1c.19-.09.43-.4.05-.53s-.83-.24-.91.07S24,21.18,24,21.18Z"/><path class="cls-2" d="M17.41,16.09c-.34.15-.52,0-.81.39s-.37.63-.31.79.46-.35.38,0,.19.3.29.34.21.39,0,.62.48.25.57,0-.12-.37,0-.55.55-.28.62-.53.29-.56,0-.89S17.7,16,17.41,16.09Z"/><path class="cls-2" d="M18.56,23.32a.75.75,0,0,0-.7-.21c-.27.09-.15.64-.52.89s-.48-.28-.91-.24-.72.18-.7.35.46.28.25.4-.07.36.23.39a.5.5,0,0,1,.44.26c.07.11.05-.45.29-.4s.53.21.73-.11.24-.74.48-.71S18.69,23.46,18.56,23.32Z"/><path class="cls-2" d="M24.38,5.21c-.13.16-.73-.61-.56-.8S24.68,4.86,24.38,5.21Z"/><path class="cls-2" d="M23.17,21.28c.15.07-.23.59-.37.46S22.84,21.11,23.17,21.28Z"/><path class="cls-3" d="M22.8,21.74c.12.11.43-.27.4-.41-.09.1-.2.18-.27.12a.2.2,0,0,1,0-.14C22.75,21.42,22.71,21.66,22.8,21.74Z"/><path class="cls-3" d="M19.59,20.77c0,.31.15.05.49.15l.08,0c.12-.15.3-.25.06-.32s-.46.16-.5-.15a1.37,1.37,0,0,1,0-.35A.72.72,0,0,0,19.59,20.77Z"/><path class="cls-3" d="M20.63,20c.14-.19.06-.54-.15-.57a.18.18,0,0,1-.17-.22.13.13,0,0,0-.07.06c-.1.23-.12.42.1.45a.29.29,0,0,1,.21.32Z"/><path class="cls-3" d="M20.78,18.33a.77.77,0,0,1,0,.59.16.16,0,0,0,.11-.15c0-.31.15-.32,0-.73l0-.08C20.77,18.06,20.65,18,20.78,18.33Z"/><path class="cls-3" d="M19.87,4.54a.37.37,0,0,0-.36.35s0,0,0,0a.47.47,0,0,1,.4-.07C19.91,4.74,19.89,4.64,19.87,4.54Z"/><path class="cls-3" d="M19.77,23.44c-.05,0-.08,0-.11,0s0,.44-.05.8l0,0A1.17,1.17,0,0,0,19.77,23.44Z"/><path class="cls-3" d="M24.16,20.7c0,.08,0,.13-.06.19h0s0-.12.09-.3C24.21,20.62,24.17,20.64,24.16,20.7Z"/><path class="cls-3" d="M23.67,21.38a.69.69,0,0,0,0-.13.77.77,0,0,0-.16.42,1,1,0,0,1-.06.16A1.09,1.09,0,0,0,23.67,21.38Z"/><path class="cls-3" d="M17.51,23a1.13,1.13,0,0,1,.4-.47c.21-.09.41.07.75-.11a.85.85,0,0,0,.49-.56,1.25,1.25,0,0,1-.35.27c-.34.19-.54,0-.76.12a1.49,1.49,0,0,0-.53.73Z"/><path class="cls-3" d="M17.63,17.63c.18-.13.47-.24.53-.45a1,1,0,0,1,.05-.16c-.14.16-.41.26-.54.4A.24.24,0,0,0,17.63,17.63Z"/><path class="cls-3" d="M18.42,16.24c.12.05.23,0,.19-.13a.26.26,0,0,1,0-.15.46.46,0,0,1-.29-.59,1,1,0,0,1,.11-.33,2.2,2.2,0,0,0-.25.61.64.64,0,0,0,0,.24l.12.11A.57.57,0,0,1,18.42,16.24Z"/><path class="cls-3" d="M16.22,5.22c-.1,0-.2,0-.16.18s0,0,0,.08S16.26,5.39,16.22,5.22Z"/><path class="cls-3" d="M25.17,17.05a.64.64,0,0,0,0-.07A.19.19,0,0,0,25.17,17.05Z"/><path class="cls-3" d="M24.47,18.73c-.09,0-.13.11-.14.29h0a.51.51,0,0,0,.57-.15c.1-.17.19-.32.36-.58a.44.44,0,0,0,.06-.16c-.12.18-.2.32-.28.45A.49.49,0,0,1,24.47,18.73Z"/><path class="cls-3" d="M16.39,10.26c.11.73.63.46.63.46a1.89,1.89,0,0,0,1,.37.11.11,0,0,1,0,0c.17-.16.26-.28.08-.32-.41-.11-.72-.11-1-.38,0,0-.52.27-.64-.46s-.53-.23-.63.15C16.06,9.89,16.31,9.79,16.39,10.26Z"/><path class="cls-3" d="M16.35,24.61c-.3,0-.44-.27-.23-.39s-.13-.19-.23-.33c-.11.06-.17.14-.16.22s.46.28.25.4-.07.36.23.39a.5.5,0,0,1,.44.26c0,.08.05-.16.13-.3A.49.49,0,0,0,16.35,24.61Z"/><path class="cls-3" d="M19.76,15.68l-.15.19c.13.4-.09.45-.21.9s.09.43.17.52.05.36.26.11a.73.73,0,0,1,.82-.23.4.4,0,0,1,.35.52.31.31,0,0,0,.11-.15c.1-.29.05-.6-.33-.66a.74.74,0,0,0-.82.23c-.21.25-.18,0-.26-.1s-.29-.08-.17-.53S19.82,16,19.76,15.68Z"/><path class="cls-3" d="M26,14.8c-.26,0-.36.28-.55.38a.47.47,0,0,0-.17.32l0,0c.19-.1.3-.39.55-.38s.41,1.24.41,1.38a1,1,0,0,0,.2.7,1.83,1.83,0,0,1,.08-.4,1,1,0,0,1-.14-.59C26.37,16,26.21,14.8,26,14.8Z"/><path class="cls-3" d="M17.34,14c.29.31.86.06,1.11.47a.52.52,0,0,1,0,.51c.14-.3.29-.5.12-.79s-.82-.16-1.12-.48,0-.38-.15-.71a1.27,1.27,0,0,1-.14-.84l0,0a1.08,1.08,0,0,0,0,1.1C17.32,13.56,17,13.64,17.34,14Z"/><path class="cls-3" d="M16.94,18.26c-.22.22.48.25.57,0a.4.4,0,0,0,0-.18c-.18.1-.49.09-.49,0A.35.35,0,0,1,16.94,18.26Z"/><path class="cls-3" d="M25.9,18.4a1.16,1.16,0,0,1,0,.57l.07-.06a.93.93,0,0,0,0-.8.45.45,0,0,1,0-.23A.67.67,0,0,0,25.9,18.4Z"/><path class="cls-3" d="M26.52,18.36h0a1.46,1.46,0,0,0,.14-.28A2,2,0,0,0,26.52,18.36Z"/><path class="cls-3" d="M21.62,21.13c-.26-.15-.46.07-.61.23s-.3.11-.5.08-.43,0-.45-.25a.4.4,0,0,0-.14.27c0,.29.25.23.45.27s.36.08.5-.08.35-.39.61-.23.79.32.93.07a2.44,2.44,0,0,1,1-.69c.28-.09.33-.34.42-.49s.3-.36.31-.51h0A2.68,2.68,0,0,0,24,20c-.1.15-.14.4-.43.49a2.62,2.62,0,0,0-1,.7C22.4,21.46,21.88,21.29,21.62,21.13Z"/><path class="cls-3" d="M18.55,3.32c-.07,0-.12,0-.11.1A.36.36,0,0,0,18.55,3.32Z"/><path class="cls-3" d="M21.79,4.55c.14.13.24.13.39.41,0,0,0,0,0,0a.21.21,0,0,0,.12-.33A.89.89,0,0,0,22,4.29c-.13,0-.23.14-.2.22S21.77,4.54,21.79,4.55Z"/><path class="cls-3" d="M17.44,4.77c.16-.2.27-.74.1-.89-.21,0-.39.12-.15.28S17.51,4.53,17.44,4.77Z"/><path class="cls-3" d="M24.38,5.21a.33.33,0,0,0,.07-.27A1.08,1.08,0,0,1,24,4.4c-.06,0-.12,0-.15,0S24.25,5.37,24.38,5.21Z"/><path class="cls-3" d="M27.16,17c-.08-.44-.42-1.08-.55-.4.15-.07.35.36.41.69s0,1.47.18,1.11l.09-.22C27.18,18.29,27.24,17.46,27.16,17Z"/><path class="cls-3" d="M15.12,22c.26.2,0,.51.19.66s.34-.08.52.09.38.08.6.06.29.62.55.66.33,0,.4-.2a.53.53,0,0,1,.06-.14c-.06.07-.15.08-.32.05s-.32-.68-.55-.66-.42.11-.6-.06-.36.06-.52-.09.06-.45-.19-.65-.49-.23-.46-.67a3.82,3.82,0,0,1,.22-.95,3.41,3.41,0,0,0-.36,1.24C14.63,21.81,14.87,21.84,15.12,22Z"/><path class="cls-3" d="M15.61,5.23c.29-.24.63-.47.78-.3.12,0,.25,0,.2-.21-.1-.34-.52-.06-.85.22-.17.15-.15,0-.06-.25C15.5,5,15.36,5.43,15.61,5.23Z"/><path class="cls-3" d="M14.82,8.81c.21,0,.79-.17.57.48a1.39,1.39,0,0,0,.34,1.25.92.92,0,0,1,.11-.33A1.32,1.32,0,0,1,15.53,9c.22-.64-.37-.44-.57-.47s-.27-.46-.38-.53a1,1,0,0,1-.26-.47.4.4,0,0,1-.16-.07c-.11.24.17.76.28.83S14.62,8.78,14.82,8.81Z"/><path class="cls-3" d="M14.6,7.06a3.08,3.08,0,0,0-.07-.59.23.23,0,0,0-.12.09,2.41,2.41,0,0,0,0,.68C14.52,7.25,14.59,7.22,14.6,7.06Z"/><path class="cls-3" d="M21.42,5.17l.08,0a1.39,1.39,0,0,1,.35,0,.12.12,0,0,1,0,0,.47.47,0,0,1-.08-.14L21.71,5a.38.38,0,0,0-.15-.09c-.16,0-.19-.08-.18-.15a.19.19,0,0,0-.06.1C21.24,5,21.15,5.1,21.42,5.17Z"/><path class="cls-3" d="M17.78,23.2a.76.76,0,0,0-.16.35A1.58,1.58,0,0,0,17.78,23.2Z"/><path class="cls-3" d="M16.29,17.27c.05.16.46-.35.38,0s.19.3.29.34A.88.88,0,0,1,17,18s0,0,0-.07c.22-.22,0-.61,0-.61s-.37,0-.28-.34-.33.13-.39,0a.43.43,0,0,1,0-.27C16.28,17,16.24,17.15,16.29,17.27Z"/><path class="cls-3" d="M20.92,5.64a.32.32,0,0,0-.09.16A.34.34,0,0,0,20.92,5.64Z"/><path class="cls-3" d="M19.35,15.45s-.16-.49-.44,0a.27.27,0,0,0-.17.3l0,0c.28-.46.44,0,.44,0,.17,0,.75-.68.85-.6a0,0,0,0,1,0,0c.1-.14.17-.28.13-.31S19.52,15.47,19.35,15.45Z"/><path class="cls-3" d="M17.81,24.37c-.2.32-.49.16-.73.11s-.2.17-.24.31a.17.17,0,0,1,.1,0c.24,0,.53.21.73-.11a1.66,1.66,0,0,0,.16-.33Z"/><path class="cls-3" d="M19.71,25.49c-.52.27-.79.23-.76-.12,0-.06,0-.12.06-.19a1.23,1.23,0,0,0-.19.48c0,.34.23.39.76.11s1-.58,1-.89h0A2.94,2.94,0,0,1,19.71,25.49Z"/><path class="cls-3" d="M25.15,20.87a1.54,1.54,0,0,0-.54.75,1.12,1.12,0,0,1,.41-.46c.13-.06.28-.22.24-.36A.26.26,0,0,1,25.15,20.87Z"/><path class="cls-3" d="M23.92,22.42c-.27,0-.41-.05-.65.31a2.82,2.82,0,0,1-1.15.88c-.26.06-1.39.68-1.38,1,0,0,0,.07,0,.1A3.81,3.81,0,0,1,22,23.9,2.84,2.84,0,0,0,23.13,23c.24-.36.38-.3.65-.31s.45,0,.57-.45A.53.53,0,0,1,23.92,22.42Z"/><path class="cls-3" d="M18.58,23.46a.37.37,0,0,1-.3.19c-.16,0-.23.19-.33.42.05-.08.11-.14.2-.13S18.55,23.66,18.58,23.46Z"/><path class="cls-3" d="M25.35,20.15c-.13,0-.21,0-.05-.43a.26.26,0,0,0-.05.09,1.43,1.43,0,0,0-.18.5l.14,0,.11,0a.79.79,0,0,0,.49-.39,1.62,1.62,0,0,0,.12-.26A.92.92,0,0,1,25.35,20.15Z"/></svg>
