<svg xmlns="http://www.w3.org/2000/svg" width="340" height="340" viewBox="0 0 340 340"><defs><style>.cls-1,.cls-3{fill:#fff;}.cls-1,.cls-2{stroke:#fff;stroke-miterlimit:10;}.cls-1{stroke-width:3px;}.cls-2{fill:none;stroke-width:2px;}.cls-3{font-size:16px;font-family:ArialMT, Arial;}</style></defs><title>time-tickmarks-2</title><g id="Layer_1" data-name="Layer 1"><line class="cls-1" x1="170" y1="269" x2="170" y2="254"/><line class="cls-1" x1="269" y1="170" x2="254" y2="170"/><line class="cls-1" x1="71" y1="170" x2="86" y2="170"/><line class="cls-1" x1="170" y1="71" x2="170" y2="86"/></g><g id="Layer_2" data-name="Layer 2"><line class="cls-2" x1="145.67" y1="79.2" x2="148.26" y2="88.86"/><line class="cls-2" x1="123" y1="88.59" x2="128" y2="97.25"/><line class="cls-2" x1="103.53" y1="103.53" x2="110.6" y2="110.6"/><line class="cls-2" x1="88.59" y1="123" x2="97.25" y2="128"/><line class="cls-2" x1="79.2" y1="145.67" x2="88.86" y2="148.26"/><line class="cls-2" x1="79.2" y1="194.33" x2="88.86" y2="191.74"/><line class="cls-2" x1="88.59" y1="217" x2="97.25" y2="212"/><line class="cls-2" x1="103.53" y1="236.47" x2="110.6" y2="229.4"/><line class="cls-2" x1="123" y1="251.41" x2="128" y2="242.75"/><line class="cls-2" x1="145.67" y1="260.8" x2="148.26" y2="251.14"/><line class="cls-2" x1="194.33" y1="260.8" x2="191.74" y2="251.14"/><line class="cls-2" x1="236.47" y1="236.47" x2="229.4" y2="229.4"/><line class="cls-2" x1="251.41" y1="217" x2="242.75" y2="212"/><line class="cls-2" x1="260.8" y1="194.33" x2="251.14" y2="191.74"/><line class="cls-2" x1="260.8" y1="145.67" x2="251.14" y2="148.26"/><line class="cls-2" x1="251.41" y1="123" x2="242.75" y2="128"/><line class="cls-2" x1="236.47" y1="103.53" x2="229.4" y2="110.6"/><line class="cls-2" x1="217" y1="88.59" x2="212" y2="97.25"/><line class="cls-2" x1="194.33" y1="79.2" x2="191.74" y2="88.86"/><line class="cls-2" x1="217" y1="251.41" x2="212" y2="242.75"/><text class="cls-3" transform="translate(276.29 174.54)">midnight</text><text class="cls-3" transform="translate(144.42 64.72)">sunrise</text><text class="cls-3" transform="translate(28.13 174.54)">noon</text><text class="cls-3" transform="translate(146.96 285.06)">sunset</text></g></svg>